# xmcd CD database file
#
# Track frame offsets:
#	150
#	23453
#	37648
#	51913
#	63250
#	78330
#	98333
#	114870
#	122878
#	143570
#	166980
#	180958
#	203575
#	231273
#	251905
#	267288
#	275658
#	296005
#
# Disc length: 4140 seconds
#
# Revision: 0
# Processed by: cddbd v1.4PL0 Copyright (c) Steve Scherf et al.
# Submitted via: CDex 1.50beta9
#
DISCID=e8102a12
DTITLE=Bernt Rosengren - Bernt Rosengren Octet Plays a Jazzversion of Porgy and Bess
DYEAR=1996
DGENRE=Jazz
TTITLE0=Summertime
TTITLE1=A Woman Is a Sometime Thing
TTITLE2=The Cotton Hook
TTITLE3=Gone, Gone, Gone
TTITLE4=Overflow
TTITLE5=My Man's Gone Now
TTITLE6=Leaving For the Promised Land
TTITLE7=I Got Plenty O'Nuttin'
TTITLE8=The Buzzard Song
TTITLE9=Bess, You Is My Woman Now
TTITLE10=I Ain't Got No Shame
TTITLE11=It Ain't Necessarily
TTITLE12=I Loves You Porgy
TTITLE13=Red-headed Woman
TTITLE14=Clara, Clara
TTITLE15=Porgy's Theme/Porgy and Crown
TTITLE16=There's a Boat That's Leavin' Soon for New York
TTITLE17=Bess, Oh Where's My Bess
EXTD=YEAR: 1996
EXTT0=
EXTT1=
EXTT2=
EXTT3=
EXTT4=
EXTT5=
EXTT6=
EXTT7=
EXTT8=
EXTT9=
EXTT10=
EXTT11=
EXTT12=
EXTT13=
EXTT14=
EXTT15=
EXTT16=
EXTT17=
PLAYORDER=
